<svg xmlns="http://www.w3.org/2000/svg" width="324.16" height="40" viewBox="0 0 324.16 40">
  <g id="_3042392267152" opacity="0.5">
    <path id="Path_1" data-name="Path 1" d="M9103.24,659.432h8.151a11.918,11.918,0,0,1,5.3,1.136,8.519,8.519,0,0,1,3.592,3.212,9.629,9.629,0,0,1,0,9.585,8.525,8.525,0,0,1-3.592,3.213,11.926,11.926,0,0,1-5.3,1.136h-8.151Zm73.414,17.328a9.244,9.244,0,0,1,0-16.375,11.488,11.488,0,0,1,10.282,0,9.239,9.239,0,0,1,0,16.375,11.494,11.494,0,0,1-10.282,0Zm8.5-2.586h0a6.028,6.028,0,0,0,2.343-2.3,6.806,6.806,0,0,0,0-6.607,6.032,6.032,0,0,0-2.343-2.3,7.255,7.255,0,0,0-6.714,0,6.032,6.032,0,0,0-2.344,2.3,6.847,6.847,0,0,0,0,6.607,6.021,6.021,0,0,0,2.344,2.3,7.257,7.257,0,0,0,6.714,0Zm169.156-7.077a5.328,5.328,0,0,1,1.8,4.374,5.631,5.631,0,0,1-1.974,4.636,8.551,8.551,0,0,1-5.541,1.607h-8.016V659.431h3.409v6.189h5.169a7.931,7.931,0,0,1,5.151,1.475Zm-2.756,7.089h0a3.277,3.277,0,0,0,1.094-2.663q0-3.317-4.21-3.317h-4.448V675.1h4.448a4.726,4.726,0,0,0,3.116-.915Zm-17.34-11.882h-6.182v15.409h-3.438V662.3h-6.152v-2.872h15.772Zm-21.556,12.562v2.847h-13.984V659.431h13.611v2.846h-10.148v4.753h9v2.795h-9v5.041h10.521Zm-32.745,1.894a9.41,9.41,0,0,1-3.558-13.018,9.174,9.174,0,0,1,3.583-3.356,10.669,10.669,0,0,1,5.1-1.214,10.811,10.811,0,0,1,4.18.784,8.541,8.541,0,0,1,3.2,2.272l-2.238,2.063a6.59,6.59,0,0,0-4.98-2.142,7.094,7.094,0,0,0-3.436.823,5.994,5.994,0,0,0-2.372,2.286,6.871,6.871,0,0,0,0,6.633,5.98,5.98,0,0,0,2.372,2.285,7.089,7.089,0,0,0,3.436.823,6.546,6.546,0,0,0,4.98-2.168l2.238,2.09a8.531,8.531,0,0,1-3.208,2.272,10.957,10.957,0,0,1-4.2.783,10.665,10.665,0,0,1-5.1-1.214Zm-21.442-17.328v18.281h-3.408V672.62h-4.979l-3.465,5.093h-3.648l4-5.641a5.991,5.991,0,0,1-3-2.233,6.343,6.343,0,0,1-1.055-3.7,6.586,6.586,0,0,1,.961-3.6,6.1,6.1,0,0,1,2.716-2.311,9.917,9.917,0,0,1,4.128-.8h7.75Zm-10.906,3.838h0a4.082,4.082,0,0,0-.038,5.6,4.591,4.591,0,0,0,3.171.98h4.365V662.3h-4.232a4.9,4.9,0,0,0-3.266.966Zm-15.692,10.212h-7.414l-1.7,4.231h-3.57l7.268-18.281h3.406l7.292,18.281h-3.623l-1.656-4.231Zm-.789-2.664h0l-2.954-7.992-2.926,7.992Zm-17.9-1.006a4.329,4.329,0,0,1,.934,2.834,4.374,4.374,0,0,1-1.812,3.735,8.784,8.784,0,0,1-5.25,1.331h-8.844V659.431h8.336a8.469,8.469,0,0,1,4.9,1.227,3.992,3.992,0,0,1,1.759,3.474,4.312,4.312,0,0,1-.708,2.481,4.383,4.383,0,0,1-2.038,1.594A5.057,5.057,0,0,1,9213.183,669.812Zm-11.561-2.572h4.635a4.245,4.245,0,0,0,2.556-.653,2.254,2.254,0,0,0,.882-1.933,2.288,2.288,0,0,0-.882-1.946,4.177,4.177,0,0,0-2.556-.667h-4.635Zm9,5.145h0q0-2.663-3.677-2.664h-5.326v5.38h5.326Q9210.624,675.1,9210.625,672.385Zm-62.686,5.328,7-18.281h3.407l7.025,18.281h-3.753l-5.081-14.1-5.131,14.1Zm-6.14-2.847v2.847h-13.979V659.432h13.609v2.846h-10.149v4.753h9v2.795h-9v5.041H9141.8Zm-30.57-.026h0a8.061,8.061,0,0,0,3.613-.77,5.585,5.585,0,0,0,2.395-2.194,6.917,6.917,0,0,0,0-6.607,5.6,5.6,0,0,0-2.395-2.194,8.066,8.066,0,0,0-3.613-.77H9106.7V674.84Z" transform="translate(-9031.948 -652.734)" fill="#707070"/>
    <path id="Path_2" data-name="Path 2" d="M7930.706,578.516h-3.512v3.52h-.931v-7.678h.931V577.7h3.512v-3.346h.926v7.678h-.926Zm-29.978,3.785h-6.3v-3.086a16.593,16.593,0,0,0-33.179,0V582.3h-6.295v-3.086a22.889,22.889,0,0,1,45.77,0Zm0-31.83h-45.77V544.23h45.77ZM8158.8,581.433a.72.72,0,0,1,.2-.543.746.746,0,0,1,.538-.193.765.765,0,0,1,.558.193.706.706,0,0,1,.2.543.716.716,0,0,1-.2.526.733.733,0,0,1-.558.209.7.7,0,0,1-.739-.736Zm-8.838-4.452a3.619,3.619,0,0,1,1.086-.4,6.057,6.057,0,0,1,1.184-.12,2.137,2.137,0,0,1,.935.176,1.5,1.5,0,0,1,.571.455,1.623,1.623,0,0,1,.28.637,3.554,3.554,0,0,1,.071.718c0,.278-.005.574-.021.888s-.027.629-.034.944a7.546,7.546,0,0,0,.068,1.042h.749v.713h-1.477l-.1-.823h-.055l-.2.253a1.873,1.873,0,0,1-.354.3,2.314,2.314,0,0,1-.534.258,2.241,2.241,0,0,1-.738.11,1.94,1.94,0,0,1-1.314-.417,1.427,1.427,0,0,1-.483-1.141,1.614,1.614,0,0,1,.253-.933,1.582,1.582,0,0,1,.724-.57,3.378,3.378,0,0,1,1.139-.23,7.929,7.929,0,0,1,1.5.087,3.762,3.762,0,0,0,.015-.839,1.1,1.1,0,0,0-.18-.532.752.752,0,0,0-.391-.279,2.052,2.052,0,0,0-.623-.082,3.374,3.374,0,0,0-.966.137c-.305.091-.58.184-.818.279l-.282-.636Zm1.655,4.42h0a1.681,1.681,0,0,0,.583-.1,1.814,1.814,0,0,0,.47-.252,1.728,1.728,0,0,0,.335-.335,1.567,1.567,0,0,0,.2-.345V579.6a6.4,6.4,0,0,0-1.073-.1,3.107,3.107,0,0,0-.851.1,1.168,1.168,0,0,0-.557.323.807.807,0,0,0-.205.571.9.9,0,0,0,.254.63,1.117,1.117,0,0,0,.843.268Zm-5.391-4a4.58,4.58,0,0,0-.553-.148,2.994,2.994,0,0,0-.588-.06,2.3,2.3,0,0,0-1.631.505,2.114,2.114,0,0,0-.539,1.606,2.233,2.233,0,0,0,.157.863,1.75,1.75,0,0,0,.447.643,2.015,2.015,0,0,0,.7.407,2.727,2.727,0,0,0,.9.143,3.006,3.006,0,0,0,1.025-.179,2.6,2.6,0,0,0,.832-.468l.39.636a3.3,3.3,0,0,1-.39.274,3.85,3.85,0,0,1-1.224.472,4.079,4.079,0,0,1-.812.077,3.73,3.73,0,0,1-1.281-.2,2.435,2.435,0,0,1-.923-.581,2.49,2.49,0,0,1-.56-.91,3.494,3.494,0,0,1-.189-1.179,3.558,3.558,0,0,1,.2-1.228,2.4,2.4,0,0,1,.564-.9,2.5,2.5,0,0,1,.9-.554,3.4,3.4,0,0,1,1.172-.192,5.258,5.258,0,0,1,1.349.142,4.919,4.919,0,0,1,.877.319l-.01.033v1.524h-.806V577.4Zm-6.434,3.948a2.723,2.723,0,0,1-.474.329,3.558,3.558,0,0,1-.6.263,4.407,4.407,0,0,1-.679.17,4.186,4.186,0,0,1-.708.061,3.241,3.241,0,0,1-1.187-.2,2.264,2.264,0,0,1-.86-.581,2.512,2.512,0,0,1-.526-.906,3.617,3.617,0,0,1-.18-1.184,3.558,3.558,0,0,1,.2-1.229,2.348,2.348,0,0,1,.566-.9,2.447,2.447,0,0,1,.892-.554,3.42,3.42,0,0,1,1.175-.192,3.674,3.674,0,0,1,.929.12,1.844,1.844,0,0,1,.811.455,2.163,2.163,0,0,1,.543.922,4.2,4.2,0,0,1,.135,1.519h-4.319a1.888,1.888,0,0,0,.541,1.475,2.074,2.074,0,0,0,1.446.488,2.546,2.546,0,0,0,.6-.071,5.1,5.1,0,0,0,.563-.17,2.959,2.959,0,0,0,.473-.219,1.978,1.978,0,0,0,.317-.22l.348.625Zm-2.352-4.2h0a3.106,3.106,0,0,0-.7.076,1.613,1.613,0,0,0-.58.258,1.437,1.437,0,0,0-.415.471,1.906,1.906,0,0,0-.2.718h3.466a1.659,1.659,0,0,0-.473-1.124,1.522,1.522,0,0,0-1.1-.4Zm-6.158,2.457h-3v2.435h-.862v-5.484h.862v2.281h3v-2.281h.882v5.484h-.882Zm-11.086-2.534-.01-.032c.127-.073.263-.145.409-.214a3.212,3.212,0,0,1,.49-.186,4.759,4.759,0,0,1,.622-.137,5.136,5.136,0,0,1,.795-.055,3.646,3.646,0,0,1,.85.094,2.376,2.376,0,0,1,.684.269,1.339,1.339,0,0,1,.451.433,1.088,1.088,0,0,1,.164.587,1.033,1.033,0,0,1-.074.368,1.248,1.248,0,0,1-.217.368,1.811,1.811,0,0,1-.347.317,1.577,1.577,0,0,1-.456.22v.044a1.714,1.714,0,0,1,1.034.461,1.32,1.32,0,0,1,.3.9,1.3,1.3,0,0,1-.169.646,1.514,1.514,0,0,1-.5.516,2.655,2.655,0,0,1-.815.346,4.531,4.531,0,0,1-1.134.126,3.993,3.993,0,0,1-.873-.088,3.615,3.615,0,0,1-.687-.219,2.66,2.66,0,0,1-.5-.284,1.855,1.855,0,0,1-.319-.286l.449-.691a3.149,3.149,0,0,0,.3.28,2,2,0,0,0,.444.268,3.234,3.234,0,0,0,.605.2,3.4,3.4,0,0,0,.791.082,2.729,2.729,0,0,0,.59-.06,1.774,1.774,0,0,0,.481-.175.96.96,0,0,0,.331-.3.724.724,0,0,0,.124-.422.693.693,0,0,0-.389-.637,2.738,2.738,0,0,0-1.275-.219h-.641v-.713h.793a1.486,1.486,0,0,0,.449-.071,1.78,1.78,0,0,0,.4-.186,1.033,1.033,0,0,0,.289-.274.564.564,0,0,0,.112-.335.632.632,0,0,0-.112-.379.8.8,0,0,0-.307-.258,1.7,1.7,0,0,0-.459-.148,3,3,0,0,0-.555-.05,3.324,3.324,0,0,0-.783.082,2.552,2.552,0,0,0-.569.2v.91h-.762v-1.305Zm-3.758,1.525.033-.724h-.033l-3.121,4.168h-.807v-5.484h.885V580.1l-.032.691h.044l3.1-4.233h.816v5.484h-.883Zm-10.828-1.041a2.386,2.386,0,0,1,.934-.768,3.216,3.216,0,0,1,1.269-.22,2.263,2.263,0,0,1,1.768.68,2.781,2.781,0,0,1,.615,1.931,3.14,3.14,0,0,1-.717,2.22,2.589,2.589,0,0,1-2,.775c-1.809,0-2.719-1.151-2.719-3.456a10.452,10.452,0,0,1,.107-1.612,4.706,4.706,0,0,1,.308-1.13,2.185,2.185,0,0,1,.492-.735,2.272,2.272,0,0,1,.659-.433,3.3,3.3,0,0,1,.807-.226q.437-.066.938-.11a7.021,7.021,0,0,0,1-.12,1.326,1.326,0,0,0,.569-.263l.134.768-.267.165a1.683,1.683,0,0,1-.358.109c-.144.03-.31.055-.5.077s-.418.04-.678.055a8.5,8.5,0,0,0-.975.109,1.6,1.6,0,0,0-.72.312,1.571,1.571,0,0,0-.471.676,4.158,4.158,0,0,0-.227,1.2h.033Zm.076,1.755h0a2.968,2.968,0,0,0,.108.789,2.03,2.03,0,0,0,.324.68,1.652,1.652,0,0,0,.555.477,1.676,1.676,0,0,0,.8.181,1.6,1.6,0,0,0,1.342-.57,2.575,2.575,0,0,0,.448-1.623,2.882,2.882,0,0,0-.1-.757,1.887,1.887,0,0,0-.285-.614,1.354,1.354,0,0,0-.5-.417,1.6,1.6,0,0,0-.721-.153,1.967,1.967,0,0,0-1.512.51,2.14,2.14,0,0,0-.471,1.5Zm-11.867.592h-1.332l-1.407,2.138h-1.121V581.3h.582l1.021-1.492a1.445,1.445,0,0,1-.416-.181,1.5,1.5,0,0,1-.362-.318,1.439,1.439,0,0,1-.258-.45,1.644,1.644,0,0,1-.1-.575,1.7,1.7,0,0,1,.2-.85,1.638,1.638,0,0,1,.559-.587,2.519,2.519,0,0,1,.849-.335,5.267,5.267,0,0,1,1.085-.1,5.2,5.2,0,0,1,.806.06c.254.04.511.083.772.126v5.44h-.885V579.9Zm0-.658h0v-1.953a2.951,2.951,0,0,0-.365-.1,1.854,1.854,0,0,0-.366-.044,2.614,2.614,0,0,0-1.289.258.878.878,0,0,0-.441.818.909.909,0,0,0,.266.7,1.293,1.293,0,0,0,.644.323Zm-7.26-1.941h-1.924q-.044,1-.111,1.87a7.844,7.844,0,0,1-.252,1.519,2.522,2.522,0,0,1-.525,1.02,1.194,1.194,0,0,1-.925.373,1.591,1.591,0,0,1-.321-.023l-.25-.077.146-.811a1.566,1.566,0,0,0,.4.055.473.473,0,0,0,.33-.132,1.135,1.135,0,0,0,.264-.422,3.837,3.837,0,0,0,.2-.823c.057-.354.1-.8.141-1.338s.066-1.19.088-1.957h3.625v5.484h-.883V577.3Zm-5.659,6.284h-.786v-1.546h-4.875v1.546h-.783v-2.357h.749c.031-.087.1-.281.206-.581a9.771,9.771,0,0,0,.336-1.273q.176-.821.319-2.062a25.817,25.817,0,0,0,.145-2.95h3.849v6.866h.84Zm-1.769-2.357h0v-6.054H8077.1q-.035,1.206-.143,2.172c-.074.643-.155,1.214-.248,1.711s-.186.924-.281,1.283-.178.655-.247.889h2.952Zm-17.036.208a.72.72,0,0,1,.2-.543.749.749,0,0,1,.538-.193.776.776,0,0,1,.56.193.719.719,0,0,1,.2.543.731.731,0,0,1-.2.526.745.745,0,0,1-.56.209.719.719,0,0,1-.538-.209A.73.73,0,0,1,8062.1,581.433Zm-9.408-2.138a2.992,2.992,0,0,1,.706-2.1,2.582,2.582,0,0,1,2.011-.773,2.992,2.992,0,0,1,1.215.225,2.414,2.414,0,0,1,.844.609,2.445,2.445,0,0,1,.5.91,3.8,3.8,0,0,1,.163,1.13,3.7,3.7,0,0,1-.179,1.19,2.441,2.441,0,0,1-.526.906,2.323,2.323,0,0,1-.856.575,3.117,3.117,0,0,1-1.158.2,2.969,2.969,0,0,1-1.206-.226,2.385,2.385,0,0,1-.853-.608,2.464,2.464,0,0,1-.5-.911,3.91,3.91,0,0,1-.163-1.13Zm.927,0h0a3.153,3.153,0,0,0,.1.768,2.085,2.085,0,0,0,.306.691,1.584,1.584,0,0,0,.553.494,1.7,1.7,0,0,0,.83.186,1.648,1.648,0,0,0,1.344-.543,2.446,2.446,0,0,0,.451-1.6,3.147,3.147,0,0,0-.094-.773,2.058,2.058,0,0,0-.312-.686,1.646,1.646,0,0,0-.56-.493,1.692,1.692,0,0,0-.83-.187,1.641,1.641,0,0,0-1.338.538,2.46,2.46,0,0,0-.447,1.6Zm-4.161.307h-3v2.435h-.86v-5.484h.86v2.281h3v-2.281h.884v5.484h-.884Zm-11.7-3.049h5.56V578.6h-.762V577.3h-1.576v4h1.354v.735h-3.639V581.3h1.4v-4h-1.579V578.6h-.76v-2.051Zm-6.947,1.919-.008-.258-.016-.329-.028-.334-.039-.286h-.749v-.713h1.487l.11.767h.058a2.492,2.492,0,0,1,.766-.641,2.307,2.307,0,0,1,1.135-.258,2.343,2.343,0,0,1,1.8.647,3.044,3.044,0,0,1,.606,2.117,3.522,3.522,0,0,1-.208,1.245,2.608,2.608,0,0,1-.587.937,2.562,2.562,0,0,1-.918.592,3.238,3.238,0,0,1-1.187.209c-.154,0-.295-.006-.417-.017s-.234-.026-.336-.044l-.3-.071-.313-.11v2.3h-.86v-5.759Zm2.573-1.24h0a1.679,1.679,0,0,0-.631.12,1.86,1.86,0,0,0-.528.317,1.788,1.788,0,0,0-.372.437,1.285,1.285,0,0,0-.182.481v2.495a2.065,2.065,0,0,0,.554.258,2.885,2.885,0,0,0,.811.092,1.862,1.862,0,0,0,1.432-.574,2.914,2.914,0,0,0,.162-3.117,1.444,1.444,0,0,0-1.246-.509Zm-5.168,4.113a2.74,2.74,0,0,1-.477.329,3.459,3.459,0,0,1-.6.263,4.4,4.4,0,0,1-.677.17,4.21,4.21,0,0,1-.709.061,3.228,3.228,0,0,1-1.186-.2,2.268,2.268,0,0,1-.862-.581,2.493,2.493,0,0,1-.525-.905,3.67,3.67,0,0,1-.178-1.184,3.607,3.607,0,0,1,.194-1.228,2.384,2.384,0,0,1,.565-.9,2.471,2.471,0,0,1,.9-.554,3.407,3.407,0,0,1,1.174-.192,3.644,3.644,0,0,1,.93.12,1.847,1.847,0,0,1,.81.455,2.164,2.164,0,0,1,.543.922,4.23,4.23,0,0,1,.134,1.519h-4.315a1.884,1.884,0,0,0,.54,1.475,2.078,2.078,0,0,0,1.445.488,2.544,2.544,0,0,0,.6-.071,4.953,4.953,0,0,0,.563-.17,2.937,2.937,0,0,0,.474-.219,1.928,1.928,0,0,0,.318-.22l.346.625Zm-2.357-4.2h0a3.126,3.126,0,0,0-.7.076,1.6,1.6,0,0,0-.579.258,1.451,1.451,0,0,0-.416.471,1.971,1.971,0,0,0-.206.719h3.469a1.665,1.665,0,0,0-.474-1.124,1.526,1.526,0,0,0-1.1-.4Zm-6.2.153h-2.909v4.738h-.86v-5.484h4.652v5.484h-.884Zm-7.327.1a4.531,4.531,0,0,0-.555-.148,2.967,2.967,0,0,0-.587-.06,2.3,2.3,0,0,0-1.631.506,2.12,2.12,0,0,0-.537,1.606,2.3,2.3,0,0,0,.156.863,1.725,1.725,0,0,0,.448.643,2,2,0,0,0,.7.407,2.728,2.728,0,0,0,.9.143,2.994,2.994,0,0,0,1.023-.179,2.6,2.6,0,0,0,.833-.468l.392.636a3.181,3.181,0,0,1-.392.274,3.919,3.919,0,0,1-.542.269,3.871,3.871,0,0,1-.682.2,4.074,4.074,0,0,1-.812.077,3.717,3.717,0,0,1-1.279-.2,2.381,2.381,0,0,1-1.484-1.491,3.47,3.47,0,0,1-.189-1.179,3.568,3.568,0,0,1,.2-1.228,2.357,2.357,0,0,1,.564-.9,2.465,2.465,0,0,1,.9-.554,3.415,3.415,0,0,1,1.175-.192,5.252,5.252,0,0,1,1.347.142,5.074,5.074,0,0,1,.879.319l-.012.033v1.524h-.806V577.4Zm-9.654,2.161h-.616v2.479h-.859v-5.484h.859V578.9h.616l2.2-2.346h1.05l-2.473,2.6,2.035,2.15h.73v.735h-1.152l-2.394-2.479Zm-9.284-4.87-.012-.033a3.125,3.125,0,0,1,.857-.312,4.959,4.959,0,0,1,1.088-.115,3.776,3.776,0,0,1,1.315.219,2.56,2.56,0,0,1,1.03.7,3.282,3.282,0,0,1,.67,1.234,6.051,6.051,0,0,1,.241,1.82,5.385,5.385,0,0,1-.274,1.832,3.294,3.294,0,0,1-.751,1.234,2.782,2.782,0,0,1-1.112.691,4.206,4.206,0,0,1-1.351.214,3.318,3.318,0,0,1-.567-.05,5.427,5.427,0,0,1-.537-.121,4.582,4.582,0,0,1-.457-.153,2.268,2.268,0,0,1-.318-.148v-1.623h.826v1.1a4.954,4.954,0,0,0,.555.16,3.079,3.079,0,0,0,.69.071,2.548,2.548,0,0,0,.864-.153,2.022,2.022,0,0,0,.763-.494,2.51,2.51,0,0,0,.545-.889,3.892,3.892,0,0,0,.2-1.348h-2.784v-.811h2.775a3.825,3.825,0,0,0-.213-1.223,2.368,2.368,0,0,0-.516-.839,2.059,2.059,0,0,0-.76-.488,2.735,2.735,0,0,0-.949-.16,3.452,3.452,0,0,0-.537.039c-.167.026-.318.057-.462.093v1.152h-.827v-1.59Zm-13.121,6.745a.711.711,0,0,1,.2-.542.739.739,0,0,1,.537-.193.77.77,0,0,1,.559.193.712.712,0,0,1,.2.542.732.732,0,0,1-.2.526.742.742,0,0,1-.559.21.71.71,0,0,1-.537-.21A.72.72,0,0,1,7980.272,581.434Zm-9.408-2.138a3,3,0,0,1,.705-2.1,2.586,2.586,0,0,1,2.014-.773,2.993,2.993,0,0,1,1.213.225,2.374,2.374,0,0,1,.845.609,2.493,2.493,0,0,1,.5.911,3.858,3.858,0,0,1,.161,1.129,3.749,3.749,0,0,1-.178,1.19,2.468,2.468,0,0,1-.526.906,2.3,2.3,0,0,1-.856.575,3.125,3.125,0,0,1-1.157.2,2.99,2.99,0,0,1-1.209-.226,2.375,2.375,0,0,1-.85-.608,2.473,2.473,0,0,1-.5-.911A3.844,3.844,0,0,1,7970.864,579.3Zm.93,0h0a3.219,3.219,0,0,0,.094.768,2.045,2.045,0,0,0,.308.691,1.552,1.552,0,0,0,.552.494,1.7,1.7,0,0,0,.831.186,1.65,1.65,0,0,0,1.343-.542,2.452,2.452,0,0,0,.451-1.6,3.172,3.172,0,0,0-.094-.773,2,2,0,0,0-.314-.686,1.633,1.633,0,0,0-.555-.493,1.715,1.715,0,0,0-.831-.187,1.639,1.639,0,0,0-1.338.538,2.46,2.46,0,0,0-.445,1.6Zm-4.163.307h-3v2.435h-.862v-5.484h.862v2.281h3v-2.281h.884v5.484h-.884Zm-10.055-.022-1.2,2.457h-.96l1.431-2.808-1.287-2.676h.973l1.019,2.369h.7v-2.369h.885v2.369h.6l1.186-2.369h.918l-1.32,2.544,1.478,2.939h-1l-1.2-2.457h-.67v2.457h-.885v-2.457Zm-3.749,1.766a2.8,2.8,0,0,1-.474.329,3.476,3.476,0,0,1-.6.263,4.372,4.372,0,0,1-.675.17,4.2,4.2,0,0,1-.71.061,3.231,3.231,0,0,1-1.187-.2,2.279,2.279,0,0,1-.862-.581,2.574,2.574,0,0,1-.525-.905,3.658,3.658,0,0,1-.179-1.184,3.57,3.57,0,0,1,.2-1.229,2.362,2.362,0,0,1,.565-.9,2.467,2.467,0,0,1,.894-.554,3.4,3.4,0,0,1,1.176-.192,3.645,3.645,0,0,1,.927.12,1.854,1.854,0,0,1,.811.455,2.149,2.149,0,0,1,.543.922,4.265,4.265,0,0,1,.133,1.519h-4.317a1.891,1.891,0,0,0,.541,1.475,2.079,2.079,0,0,0,1.446.488,2.533,2.533,0,0,0,.6-.071,4.945,4.945,0,0,0,.564-.17,3.069,3.069,0,0,0,.474-.219,2.019,2.019,0,0,0,.316-.22l.346.625Zm-2.355-4.2h0a3.106,3.106,0,0,0-.7.076,1.65,1.65,0,0,0-.58.258,1.412,1.412,0,0,0-.411.472,1.878,1.878,0,0,0-.208.718h3.468a1.661,1.661,0,0,0-.475-1.125,1.518,1.518,0,0,0-1.1-.4Zm-4.669,6.208h-.761v-1.316h-4.5v1.316h-.76v-2.062h.625a2.7,2.7,0,0,0,.268-.433,4.4,4.4,0,0,0,.326-.878,11.916,11.916,0,0,0,.278-1.4,16.774,16.774,0,0,0,.146-2.024h3.513v4.738h.86v2.062Zm-1.746-2.051h0v-4.014h-1.844c-.014.315-.042.655-.082,1.02s-.1.729-.172,1.091a9.658,9.658,0,0,1-.27,1.036,4.8,4.8,0,0,1-.371.867Zm-10.815-4.321a3.591,3.591,0,0,1,1.085-.4,6.051,6.051,0,0,1,1.186-.12,2.138,2.138,0,0,1,.933.176,1.5,1.5,0,0,1,.572.455,1.6,1.6,0,0,1,.279.637,3.666,3.666,0,0,1,.072.719q0,.417-.023.888c-.015.314-.026.629-.035.944a7.617,7.617,0,0,0,.07,1.042h.748v.713h-1.477l-.1-.823h-.057l-.2.253a1.8,1.8,0,0,1-.354.3,2.3,2.3,0,0,1-.533.258,2.273,2.273,0,0,1-.741.11,1.942,1.942,0,0,1-1.313-.417,1.425,1.425,0,0,1-.481-1.141,1.628,1.628,0,0,1,.251-.933,1.6,1.6,0,0,1,.724-.57,3.4,3.4,0,0,1,1.139-.23,7.9,7.9,0,0,1,1.5.087,3.783,3.783,0,0,0,.018-.839,1.121,1.121,0,0,0-.18-.532.756.756,0,0,0-.393-.279,2.035,2.035,0,0,0-.623-.082,3.378,3.378,0,0,0-.967.137q-.458.137-.818.279l-.282-.636Zm1.655,4.42h0a1.673,1.673,0,0,0,.581-.1,1.814,1.814,0,0,0,.473-.252,1.711,1.711,0,0,0,.536-.68V579.6a6.425,6.425,0,0,0-1.074-.1,3.109,3.109,0,0,0-.852.1,1.191,1.191,0,0,0-.557.323.8.8,0,0,0-.2.571.891.891,0,0,0,.251.63,1.114,1.114,0,0,0,.843.268Z" transform="translate(-7854.958 -544.23)" fill="#707070"/>
  </g>
</svg>
