<svg xmlns="http://www.w3.org/2000/svg" width="7.494" height="10.601" viewBox="0 0 7.494 10.601">
  <g id="question-mark" opacity="0.7">
    <path id="Path_1985" data-name="Path 1985" d="M9.29,16.2H8.778a.654.654,0,0,0-.654.654v.707a.654.654,0,0,0,.654.654H9.29a.654.654,0,0,0,.654-.654v-.707A.653.653,0,0,0,9.29,16.2Z" transform="translate(-5.372 -7.613)"/>
    <path id="Path_1986" data-name="Path 1986" d="M3.239,3.114l.945.118a.654.654,0,0,0,.692-.417,2.015,2.015,0,0,1,.569-.842,1.927,1.927,0,0,1,1.284-.436A1.843,1.843,0,0,1,8,1.953a1.3,1.3,0,0,1,.47,1,1.249,1.249,0,0,1-.265.771,8.74,8.74,0,0,1-1.053.936A4.438,4.438,0,0,0,5.971,5.951a2.978,2.978,0,0,0-.288,1.256.654.654,0,0,0,.654.681h.534a.655.655,0,0,0,.651-.6,1.65,1.65,0,0,1,.123-.552,3.069,3.069,0,0,1,.792-.851,8.223,8.223,0,0,0,1.61-1.616,2.313,2.313,0,0,0,.377-1.258A2.739,2.739,0,0,0,9.4.905,4.01,4.01,0,0,0,6.645,0,3.87,3.87,0,0,0,3.985.893,3.082,3.082,0,0,0,2.937,2.7.352.352,0,0,0,3.239,3.114Z" transform="translate(-2.931 0)"/>
  </g>
</svg>
